<svg width="26" height="24" viewBox="0 0 26 24" fill="none" xmlns="http://www.w3.org/2000/svg">
<path d="M22.7368 5.05263H18.9474V2.52632C18.9474 1.12421 17.8232 0 16.4211 0H8.84211C7.44 0 6.31579 1.12421 6.31579 2.52632V5.05263H2.52632C1.12421 5.05263 0 6.17684 0 7.57895V21.4737C0 22.8758 1.12421 24 2.52632 24H22.7368C24.1389 24 25.2632 22.8758 25.2632 21.4737V7.57895C25.2632 6.17684 24.1389 5.05263 22.7368 5.05263ZM8.84211 2.52632H16.4211V5.05263H8.84211V2.52632ZM22.7368 21.4737H2.52632V18.9474H22.7368V21.4737ZM22.7368 15.1579H2.52632V7.57895H6.31579V10.1053H8.84211V7.57895H16.4211V10.1053H18.9474V7.57895H22.7368V15.1579Z" fill="#ADADAF"/>
</svg>
