<svg width="16" height="16" viewBox="0 0 16 16" fill="none" xmlns="http://www.w3.org/2000/svg">
<path fill-rule="evenodd" clip-rule="evenodd" d="M7.46937 1.54601C7.55223 1.27845 7.77597 1.14453 7.99972 1.14453C8.22347 1.14453 8.44721 1.27845 8.53007 1.54601L9.76359 5.53095C9.83758 5.77001 10.052 5.93216 10.2939 5.93216H14.2988C14.8368 5.93216 15.0623 6.64584 14.6285 6.9766L11.3782 9.45539C11.1849 9.60248 11.1043 9.86144 11.1775 10.0983L12.4166 14.101C12.5423 14.5065 12.2316 14.8588 11.8842 14.8588C11.7745 14.8588 11.661 14.8236 11.5566 14.744L8.32938 12.283C8.23132 12.2082 8.11552 12.1708 7.99972 12.1708C7.88392 12.1708 7.76812 12.2082 7.67006 12.283L4.44284 14.744C4.33844 14.8236 4.22492 14.8588 4.1152 14.8588C3.7678 14.8588 3.45714 14.5065 3.58282 14.101L4.82192 10.0983C4.89515 9.86144 4.81457 9.60248 4.62123 9.45539L1.37095 6.9766C0.937143 6.64584 1.16266 5.93216 1.70062 5.93216H5.7055C5.94749 5.93216 6.16186 5.77001 6.23585 5.53095L7.46937 1.54601Z" fill="#FF9500"/>
</svg>
